# xmcd
#
# Track frame offsets:
#	150
#	21161
#	41261
#	57408
#	77898
#	96521
#	118356
#	131927
#	149590
#	163976
#
# Disc length: 2513 seconds
#
# Revision: 1
# Processed by: cddbd v1.5.2PL0 Copyright (c) Steve Scherf et al.
# Submitted via: audiograbber 1.83.01
#
DISCID=9a09cf0a
DTITLE=Harley Daniels - ONE OF THE DAYS
DYEAR=2015
DGENRE=
TTITLE0=01 Cross-tie Walker
TTITLE1=02 Will the circle be unbroken
TTITLE2=03 Take it easy
TTITLE3=04 Folsom prison blues
TTITLE4=05 Crossroad
TTITLE5=06 Skillet good and greasy
TTITLE6=07 One of these days
TTITLE7=08 Man of constant sorrow
TTITLE8=09 There'll be no teardrops tonight
TTITLE9=10 Dust my broom 
EXTD=
EXTT0=
EXTT1=
EXTT2=
EXTT3=
EXTT4=
EXTT5=
EXTT6=
EXTT7=
EXTT8=
EXTT9=
PLAYORDER=
